<svg id="Layer_1" data-name="Layer 1" xmlns="http://www.w3.org/2000/svg" viewBox="0 0 246.71 100"><defs><style>.cls-1{fill:#f16522;}.cls-2{fill:#123884;}</style></defs><title>logo ihf</title><path class="cls-1" d="M58.59,51.7l-1.51-.06a21.76,21.76,0,0,0-3.06.13,26.37,26.37,0,0,0,.14-6.6l-.2-1.5a.23.23,0,0,0-.27-.19l-1.49.34a20,20,0,0,0-2.74.86,25.54,25.54,0,0,0-1.77-7l-.61-1.39a.23.23,0,0,0-.32-.11L45.44,37A23.32,23.32,0,0,0,42,39.37a19.69,19.69,0,0,0-4.46-9.27l-1-1.11a.23.23,0,0,0-.34,0l-1,1.11a19.79,19.79,0,0,0-4.46,9.27A23.57,23.57,0,0,0,27.35,37L26,36.21a.23.23,0,0,0-.32.11l-.61,1.39a25.13,25.13,0,0,0-1.77,7,19.87,19.87,0,0,0-2.75-.86l-1.48-.34a.23.23,0,0,0-.28.19l-.2,1.5a26.11,26.11,0,0,0,.15,6.6,21.86,21.86,0,0,0-3.07-.13l-1.51.06A.22.22,0,0,0,14,52l.19,1.51c.05.38,1.29,9.47,7.85,15a21.54,21.54,0,0,0,8.09,4.15l.37-.81,4.23-2.37,2.76-1.61A19.81,19.81,0,0,1,43,59.33c3.94-3.33,9.2-4.19,12-4.4a23.74,23.74,0,0,1-4.2,8.87h4a28.16,28.16,0,0,0,3.84-10.34L58.81,52A.22.22,0,0,0,58.59,51.7ZM36.39,33.87a14.77,14.77,0,0,1,2.55,6.79A20,20,0,0,0,37.58,39l-1-1.12a.25.25,0,0,0-.34,0L35.2,39a21.19,21.19,0,0,0-1.35,1.71A14.88,14.88,0,0,1,36.39,33.87Zm-9,7a23,23,0,0,1,4.05,3.79A25,25,0,0,0,30,48.36a23.86,23.86,0,0,0-3.52-2.26A23.17,23.17,0,0,1,27.4,40.84Zm-5.68,6.7c2.47.89,6.86,2.92,9.53,6.76l.14.22q-.33.73-.6,1.53a23.28,23.28,0,0,0-8.66-3.74A24.08,24.08,0,0,1,21.72,47.54ZM24.11,66c-3.94-3.34-5.67-8.38-6.35-11.09,2.79.21,8,1.07,12,4.4l.15.14A16.07,16.07,0,0,0,29.69,62a18.58,18.58,0,0,0,1.79,7.66A18.52,18.52,0,0,1,24.11,66Zm10,1.62A14.78,14.78,0,0,1,32.92,62c0-4.11,2.09-7.78,3.47-9.76a20.2,20.2,0,0,1,3,6.16A24.82,24.82,0,0,0,34.13,67.64Zm5.41-16.51a21.42,21.42,0,0,0-2-2.62l-1-1.12a.25.25,0,0,0-.34,0l-1,1.12a22.58,22.58,0,0,0-2,2.62l-.56-.23a22.58,22.58,0,0,1,3.72-8.25,22.44,22.44,0,0,1,3.73,8.24Zm5.85-10.29a23,23,0,0,1,1,5.26,23.86,23.86,0,0,0-3.52,2.26,24,24,0,0,0-1.49-3.73A22.93,22.93,0,0,1,45.39,40.84Zm5.26,11.47A23.24,23.24,0,0,0,42,56.05c-.19-.53-.39-1-.61-1.53l.14-.22c2.68-3.85,7.07-5.87,9.54-6.76A23.51,23.51,0,0,1,50.65,52.31Z"/><path class="cls-1" d="M70.63,17.32,57.13,31A27,27,0,0,1,61,37l9.35-4a.25.25,0,0,1,.35.23v3.19a.25.25,0,0,1-.16.23L59.18,41.52l-.66-1.62a23.79,23.79,0,0,0-44.14,0l-.56,1.39a.26.26,0,0,1-.34.14L2.34,36.7a.25.25,0,0,1-.15-.23V33.28a.25.25,0,0,1,.35-.23l9.35,4a27,27,0,0,1,3.88-6L2.26,17.32a.26.26,0,0,1-.07-.17V13a.25.25,0,0,1,.43-.17L18.16,28.57a27.13,27.13,0,0,1,6.33-4.28L16.94,5.59a.26.26,0,0,1,.24-.35h3.16a.25.25,0,0,1,.23.16L27.68,23a27.12,27.12,0,0,1,7-1.38V5.49A.25.25,0,0,1,35,5.24h2.94a.25.25,0,0,1,.25.25V21.6a27.2,27.2,0,0,1,7,1.38L52.32,5.4a.25.25,0,0,1,.24-.16h3.16a.25.25,0,0,1,.23.35L48.4,24.29a27,27,0,0,1,6.34,4.28L70.27,12.79a.25.25,0,0,1,.44.17v4.19A.23.23,0,0,1,70.63,17.32Z"/><path class="cls-1" d="M70.7,73.34a.23.23,0,0,0-.1-.15,3.34,3.34,0,0,0-1.81-.54,3.3,3.3,0,0,0-2.55,1.19,53,53,0,0,1-9.39,8.61,63,63,0,0,1-18.49,9.13,7.57,7.57,0,0,1-2.31.35,7.33,7.33,0,0,1-2.18-.32C28.6,90,15.33,85.11,6,73.58a2.39,2.39,0,0,1,2.84-3.69L31.66,80.83a6.32,6.32,0,0,0,1,.43l.33.13a.21.21,0,0,0,.18,0h0a6.31,6.31,0,0,0,1.36.16,6.23,6.23,0,0,0,2.9-.72l6.93-3.7a.22.22,0,0,0,.1-.31,3.09,3.09,0,0,0-2.73-1.64,3.21,3.21,0,0,0-1.45.36l-4.41,2.35a2.87,2.87,0,0,1-1.34.34,3,3,0,0,1-.73-.09l-.77-.32a2.93,2.93,0,0,1-1.36-2,3,3,0,0,1,0-.42,2.9,2.9,0,0,1,1.47-2.56l11.7-6.67a2.85,2.85,0,0,1,1.42-.38h11a3.09,3.09,0,0,0,3.09-3.08.24.24,0,0,0-.24-.24H46.27a6.23,6.23,0,0,0-3.07.81L31.62,69.9a6.24,6.24,0,0,0-3.25,6l-18.17-9a5.71,5.71,0,0,0-6.74,8.82C13.33,87.92,27.35,93.12,32.91,94.8a11,11,0,0,0,6.43,0C61,88.11,70.28,74.1,70.67,73.51a.25.25,0,0,0,0-.17"/><path class="cls-2" d="M146.24,47.32V64.63a8.13,8.13,0,0,1-8.12,8.13V47.32h-3.38V41.14h3.38V37.08c0-4.63,2.87-9.31,9.49-9.31h5.17v6.87h-3.73c-1.94,0-2.81,1.06-2.81,2.94v3.56h6.54v6.18Z"/><path class="cls-2" d="M84.25,34.36V27.74h1.69a6.62,6.62,0,0,1,6.63,6.62Zm0,5.56h8.13V72.76H84.25Z"/><path class="cls-2" d="M120.25,72.76V52.89c0-4.32-2.75-5.75-5.32-5.75s-5.24,1.5-5.24,5.75V72.76h-8.13v-45a8.12,8.12,0,0,1,8.13,8.12V43.2a10.73,10.73,0,0,1,7.81-3.37c7.12,0,10.87,5,10.87,11.87V72.76Z"/><path class="cls-2" d="M166.11,45.5V36.59h1V45.5Z"/><path class="cls-2" d="M176,45.5l-5.1-7.14V45.5h-1V36.59h1l5.1,7.12V36.59h1V45.5Z"/><path class="cls-2" d="M185.52,44.67a3.51,3.51,0,0,1-2.43.83H179.8V36.59h3.29a3.51,3.51,0,0,1,2.43.83c1,.93.95,2.29.95,3.53S186.52,43.75,185.52,44.67Zm-.71-6.58a2.64,2.64,0,0,0-1.89-.65h-2.1v7.21h2.1a2.64,2.64,0,0,0,1.89-.65c.66-.64.63-2,.63-3S185.47,38.73,184.81,38.09Z"/><path class="cls-2" d="M194.34,44.65a3.75,3.75,0,0,1-4.92,0c-.9-.84-.9-1.72-.9-3.6s0-2.77.9-3.61a3.75,3.75,0,0,1,4.92,0c.9.84.9,1.72.9,3.61S195.24,43.81,194.34,44.65Zm-.8-6.64a2.47,2.47,0,0,0-3.32,0c-.61.57-.67,1.17-.67,3s.06,2.46.67,3a2.47,2.47,0,0,0,3.32,0c.61-.57.68-1.17.68-3S194.15,38.58,193.54,38Z"/><path class="cls-2" d="M203.79,45.5l-5.11-7.14V45.5h-1V36.59h1l5.1,7.12V36.59h1V45.5Z"/><path class="cls-2" d="M207.54,45.5V36.59h6v.85h-4.94v3.14h4.21v.85h-4.21v3.22h4.94v.85Z"/><path class="cls-2" d="M218.11,45.57a4.39,4.39,0,0,1-3.29-1.17l.7-.65a3.47,3.47,0,0,0,2.62,1c1.4,0,2.27-.61,2.27-1.65A1.38,1.38,0,0,0,220,42a2.19,2.19,0,0,0-1.26-.43l-1.12-.16a3.73,3.73,0,0,1-1.77-.67,2.05,2.05,0,0,1-.73-1.67c0-1.51,1.18-2.51,3.08-2.51a4.06,4.06,0,0,1,2.86,1l-.66.62a3.17,3.17,0,0,0-2.24-.77c-1.28,0-2,.67-2,1.65a1.24,1.24,0,0,0,.43,1,3,3,0,0,0,1.29.49l1.06.15a3.22,3.22,0,0,1,1.75.62,2.17,2.17,0,0,1,.81,1.77C221.43,44.61,220.11,45.57,218.11,45.57Z"/><path class="cls-2" d="M223.58,45.5V36.59h1V45.5Z"/><path class="cls-2" d="M233,45.5l-.77-2H228l-.77,2h-1.09l3.53-8.91h.87l3.52,8.91ZM230.14,38l-1.81,4.7h3.59Z"/><path class="cls-2" d="M171.7,59.09V55h-4.56v4.06h-1v-8.9h1v4h4.56v-4h1v8.9Z"/><path class="cls-2" d="M175.51,59.09v-8.9h6V51h-4.94v3.14h4.21V55h-4.21v3.21h4.94v.85Z"/><path class="cls-2" d="M189.13,59.09l-2.19-4h-2.31v4h-1v-8.9h3.68c1.67,0,2.85.93,2.85,2.47a2.37,2.37,0,0,1-2.09,2.39l2.28,4ZM187.2,51h-2.57V54.3h2.57c1.12,0,1.91-.54,1.91-1.63S188.32,51,187.2,51Z"/><path class="cls-2" d="M192.46,59.09v-8.9h1v8.9Z"/><path class="cls-2" d="M199.09,51v8.05h-1V51h-2.78v-.85h6.59V51Z"/><path class="cls-2" d="M208.47,59.09l-.77-2h-4.2l-.76,2h-1.1l3.54-8.9H206l3.53,8.9Zm-2.85-7.54-1.8,4.7h3.59Z"/><path class="cls-2" d="M216.56,58.14a3.74,3.74,0,0,1-5,.1c-.91-.84-.91-1.71-.91-3.6s0-2.77.91-3.6a3.55,3.55,0,0,1,2.45-.93,3.22,3.22,0,0,1,3.37,2.67h-1A2.27,2.27,0,0,0,214,51a2.43,2.43,0,0,0-1.66.64c-.6.57-.67,1.18-.67,3s.07,2.47.67,3a2.56,2.56,0,0,0,3.49-.14,2.22,2.22,0,0,0,.54-1.61v-.68H214v-.83h3.39v1.41A3,3,0,0,1,216.56,58.14Z"/><path class="cls-2" d="M219.77,59.09v-8.9h6V51H220.8v3.14H225V55H220.8v3.21h4.94v.85Z"/><path class="cls-2" d="M167.14,64.63v3.28h4.21v.85h-4.21v3.92h-1v-8.9h6v.85Z"/><path class="cls-2" d="M179.14,71.83a3.72,3.72,0,0,1-4.92,0c-.9-.84-.9-1.71-.9-3.6s0-2.76.9-3.6a3.72,3.72,0,0,1,4.92,0c.9.84.9,1.71.9,3.6S180,71,179.14,71.83Zm-.8-6.64a2.47,2.47,0,0,0-3.32,0c-.61.58-.68,1.18-.68,3s.07,2.46.68,3a2.47,2.47,0,0,0,3.32,0c.61-.58.68-1.18.68-3S179,65.77,178.34,65.19Z"/><path class="cls-2" d="M185.67,72.76a3.08,3.08,0,0,1-3.35-3v-6h1v5.89a2.33,2.33,0,0,0,4.66,0V63.78h1v6A3.08,3.08,0,0,1,185.67,72.76Z"/><path class="cls-2" d="M197.81,72.68l-5.11-7.14v7.14h-1v-8.9h1l5.1,7.11V63.78h1v8.9Z"/><path class="cls-2" d="M207.28,71.86a3.55,3.55,0,0,1-2.43.82h-3.29v-8.9h3.29a3.55,3.55,0,0,1,2.43.82c1,.93.95,2.29.95,3.53S208.28,70.93,207.28,71.86Zm-.71-6.58a2.6,2.6,0,0,0-1.89-.65h-2.09v7.2h2.09a2.6,2.6,0,0,0,1.89-.65c.66-.64.63-2,.63-3.05S207.23,65.92,206.57,65.28Z"/><path class="cls-2" d="M216.13,72.68l-.77-2h-4.2l-.77,2H209.3l3.53-8.9h.87l3.52,8.9Zm-2.85-7.54-1.81,4.7h3.59Z"/><path class="cls-2" d="M220.78,64.63v8.05h-1V64.63H217v-.85h6.59v.85Z"/><path class="cls-2" d="M225.36,72.68v-8.9h1v8.9Z"/><path class="cls-2" d="M234.62,71.83a3.71,3.71,0,0,1-4.91,0c-.91-.84-.91-1.71-.91-3.6s0-2.76.91-3.6a3.71,3.71,0,0,1,4.91,0c.91.84.91,1.71.91,3.6S235.53,71,234.62,71.83Zm-.79-6.64a2.49,2.49,0,0,0-3.33,0c-.6.58-.67,1.18-.67,3s.07,2.46.67,3a2.49,2.49,0,0,0,3.33,0c.6-.58.67-1.18.67-3S234.43,65.77,233.83,65.19Z"/><path class="cls-2" d="M243.92,72.68l-5.11-7.14v7.14h-1v-8.9h1l5.1,7.11V63.78h1v8.9Z"/></svg>